<?xml version="1.0" encoding="UTF-8"?>
<svg width="1200" height="630" viewBox="0 0 1200 630" fill="none" xmlns="http://www.w3.org/2000/svg">
  <!-- Background gradient -->
  <rect width="1200" height="630" fill="url(#paint0_linear)"/>
  <defs>
    <linearGradient id="paint0_linear" x1="0" y1="0" x2="1200" y2="630" gradientUnits="userSpaceOnUse">
      <stop stop-color="#3b82f6"/>
      <stop offset="1" stop-color="#1e40af"/>
    </linearGradient>
  </defs>
  
  <!-- Decoration elements -->
  <circle cx="1100" cy="100" r="80" fill="white" fill-opacity="0.1"/>
  <circle cx="150" cy="550" r="120" fill="white" fill-opacity="0.05"/>
  <rect x="1000" y="500" width="200" height="200" transform="rotate(45 1000 500)" fill="white" fill-opacity="0.1"/>
  
  <!-- Main content -->
  <g transform="translate(600, 250)">
    <!-- Title -->
    <text x="0" y="-100" text-anchor="middle" fill="white" font-size="48" font-weight="bold" font-family="Arial, sans-serif">Ремонт Комп'ютерів та Ноутбуків</text>
    <text x="0" y="-30" text-anchor="middle" fill="white" font-size="36" font-family="Arial, sans-serif">у Хмельницькому</text>
    
    <!-- Services -->
    <g transform="translate(0, 30)" fill="white" font-family="Arial, sans-serif">
      <g transform="translate(-200, 30)">
        <circle cx="0" cy="10" r="8" fill="white"/>
        <text x="20" y="15" font-size="24">Встановлення Windows</text>
      </g>
      <g transform="translate(200, 30)">
        <circle cx="0" cy="10" r="8" fill="white"/>
        <text x="20" y="15" font-size="24">Видалення вірусів</text>
      </g>
      <g transform="translate(-200, 80)">
        <circle cx="0" cy="10" r="8" fill="white"/>
        <text x="20" y="15" font-size="24">Чистка від пилу</text>
      </g>
      <g transform="translate(200, 80)">
        <circle cx="0" cy="10" r="8" fill="white"/>
        <text x="20" y="15" font-size="24">Апаратний ремонт</text>
      </g>
    </g>
    
    <!-- Contact info -->
    <g transform="translate(0, 180)">
      <rect x="-200" y="-25" width="400" height="60" rx="30" fill="rgba(255,255,255,0.2)"/>
      <text x="0" y="10" text-anchor="middle" fill="white" font-size="28" font-weight="bold" font-family="Arial, sans-serif">📞 097 609 73 10</text>
    </g>
    
    <!-- Logo -->
    <text x="0" y="-150" text-anchor="middle" fill="white" font-size="80" font-weight="bold" font-family="Arial, sans-serif">PC-Master</text>
  </g>
  
  <!-- Bottom text -->
  <text x="600" y="600" text-anchor="middle" fill="white" font-size="18" font-family="Arial, sans-serif" opacity="0.8">pcmaster-khmelnytskyi.xyz</text>
</svg>
